<svg width="150" height="36" viewBox="0 0 150 36" fill="none" xmlns="http://www.w3.org/2000/svg">
<path d="M60.1189 1.03109V28.3904C60.1189 33.03 57.7752 35.2302 53.9487 35.2302C50.0744 35.2302 47.6829 33.03 47.6829 28.3904V1.03109H51.7485V28.9165C51.7485 30.9733 52.4181 31.9299 53.9009 31.9299C55.3836 31.9299 56.0533 31.0211 56.0533 28.9165V1.03109H60.1189Z" fill="#1C1C1C"/>
<path d="M35.5894 1.03109H39.655V31.2124H43.9598V34.5127H35.5894V1.03109Z" fill="#1C1C1C"/>
<path d="M28.6351 1.03109L32.2224 34.5127H28.1568L27.535 26.3337H24.4738L23.852 34.5127H19.7864L23.4215 1.03109H28.6351ZM24.7608 23.0333H27.248L26.2914 10.3581L26.1001 6.96213H25.9087L25.7174 10.3581L24.7608 23.0333Z" fill="#1C1C1C"/>
<path d="M16.4538 1.03109V34.5127H12.6274L13.3927 10.5973L13.5362 7.15345H13.3448L10.2358 34.5127H6.45718L3.10901 7.15345H2.91769L3.10901 10.5973L3.82647 34.5127H0V1.03109H5.83537L8.0356 25.4249L8.27475 28.5817H8.46607L8.60957 25.4249L10.6185 1.03109H16.4538Z" fill="#1C1C1C"/>
<path d="M149.223 25.32H147.843V23.28C147.843 22.18 147.543 21.82 146.943 21.82C146.343 21.82 146.003 22.18 146.003 23.28V24.58C146.003 25.66 146.623 26.54 147.323 27.36C148.243 28.4 149.283 29.6 149.283 31.34V32.52C149.283 34.44 148.383 35.3 146.923 35.3C145.463 35.3 144.583 34.46 144.583 32.52V30.66H145.943V32.7C145.943 33.8 146.303 34.18 146.943 34.18C147.563 34.18 147.903 33.8 147.903 32.7V31.4C147.903 30.2 147.103 29.26 146.303 28.3C145.463 27.3 144.643 26.26 144.643 24.66V23.44C144.643 21.54 145.503 20.7 146.943 20.7C148.363 20.7 149.223 21.54 149.223 23.44V25.32Z" fill="#1C1C1C"/>
<path d="M143.52 23.44V32.52C143.52 34.38 142.7 35.3 141.2 35.3C139.72 35.3 138.88 34.36 138.88 32.52V23.44C138.88 21.62 139.7 20.7 141.2 20.7C142.7 20.7 143.52 21.62 143.52 23.44ZM142.14 23.28C142.14 22.26 141.86 21.82 141.2 21.82C140.54 21.82 140.24 22.26 140.24 23.28V32.7C140.24 33.72 140.54 34.18 141.2 34.18C141.86 34.18 142.14 33.72 142.14 32.7V23.28Z" fill="#1C1C1C"/>
<path d="M138.34 21V22.12H136.7V35H135.32V22.12H133.66V21H138.34Z" fill="#1C1C1C"/>
<path d="M132.803 21V32.52C132.803 34.42 131.923 35.3 130.363 35.3C128.823 35.3 127.903 34.4 127.903 32.52V21H129.283V32.7C129.283 33.72 129.623 34.18 130.363 34.18C131.103 34.18 131.443 33.72 131.443 32.7V21H132.803Z" fill="#1C1C1C"/>
<path d="M126.841 23.74V32.22C126.841 34.1 125.921 35 124.281 35H122.201V21H124.281C125.901 21 126.841 21.88 126.841 23.74ZM125.481 23.58C125.481 22.56 125.101 22.12 124.281 22.12H123.581V33.88H124.281C125.101 33.88 125.481 33.42 125.481 32.4V23.58Z" fill="#1C1C1C"/>
<path d="M121.098 23.44V32.52C121.098 34.38 120.278 35.3 118.778 35.3C117.298 35.3 116.458 34.36 116.458 32.52V23.44C116.458 21.62 117.278 20.7 118.778 20.7C120.278 20.7 121.098 21.62 121.098 23.44ZM119.718 23.28C119.718 22.26 119.438 21.82 118.778 21.82C118.118 21.82 117.818 22.26 117.818 23.28V32.7C117.818 33.72 118.118 34.18 118.778 34.18C119.438 34.18 119.718 33.72 119.718 32.7V23.28Z" fill="#1C1C1C"/>
<path d="M110.795 21H112.875C114.495 21 115.435 21.94 115.435 23.84V26.02C115.435 27.26 114.995 28.04 114.155 28.36V28.4C114.995 28.7 115.435 29.52 115.435 30.72V32.98C115.435 33.78 115.475 34.18 115.595 34.92V35H114.235C114.115 34.22 114.075 33.78 114.075 32.98V30.4C114.075 29.38 113.695 28.94 112.875 28.94H112.175V35H110.795V21ZM112.175 22.12V27.82H112.875C113.695 27.82 114.075 27.38 114.075 26.34V23.58C114.075 22.56 113.695 22.12 112.875 22.12H112.175Z" fill="#1C1C1C"/>
<path d="M109.673 23.82V26.92C109.673 28.8 108.753 29.76 107.113 29.76H106.413V35H105.033V21H107.113C108.733 21 109.673 21.94 109.673 23.82ZM108.313 23.58C108.313 22.56 107.933 22.12 107.113 22.12H106.413V28.64H107.113C107.933 28.64 108.313 28.18 108.313 27.16V23.58Z" fill="#1C1C1C"/>
<path d="M101.007 21V22.12H99.1671V27.46H100.887V28.58H99.1671V33.88H101.187V35H97.7871V21H101.007Z" fill="#1C1C1C"/>
<path d="M92.4077 21L94.0077 35H92.6277L92.3077 31.46H90.7877L90.4677 35H89.1077L90.6877 21H92.4077ZM90.9077 30.34H92.2077L91.6677 24.52L91.5877 23.1H91.5077L91.4277 24.52L90.9077 30.34Z" fill="#1C1C1C"/>
<path d="M87.1203 23.28C87.1203 22.28 86.8203 21.82 86.1803 21.82C85.5203 21.82 85.2203 22.28 85.2203 23.28V32.7C85.2203 33.72 85.5203 34.18 86.1803 34.18C86.8203 34.18 87.1203 33.72 87.1203 32.7V30.06H88.5003V32.52C88.5003 34.4 87.6403 35.3 86.1803 35.3C84.7203 35.3 83.8403 34.4 83.8403 32.52V23.44C83.8403 21.58 84.7203 20.7 86.1803 20.7C87.6403 20.7 88.5003 21.58 88.5003 23.44V25.92H87.1203V23.28Z" fill="#1C1C1C"/>
<path d="M78.1973 21H80.2773C81.8973 21 82.8373 21.94 82.8373 23.84V26.02C82.8373 27.26 82.3973 28.04 81.5573 28.36V28.4C82.3973 28.7 82.8373 29.52 82.8373 30.72V32.98C82.8373 33.78 82.8773 34.18 82.9973 34.92V35H81.6373C81.5173 34.22 81.4773 33.78 81.4773 32.98V30.4C81.4773 29.38 81.0973 28.94 80.2773 28.94H79.5773V35H78.1973V21ZM79.5773 22.12V27.82H80.2773C81.0973 27.82 81.4773 27.38 81.4773 26.34V23.58C81.4773 22.56 81.0973 22.12 80.2773 22.12H79.5773Z" fill="#1C1C1C"/>
<path d="M75.9038 21L77.5038 35H76.1238L75.8038 31.46H74.2838L73.9638 35H72.6038L74.1838 21H75.9038ZM74.4038 30.34H75.7038L75.1638 24.52L75.0838 23.1H75.0038L74.9238 24.52L74.4038 30.34Z" fill="#1C1C1C"/>
<path d="M71.8801 21V35H70.5801L70.8201 24.74L70.9001 23.32L70.8201 23.3L69.4401 35H68.1601L66.6401 23.3L66.5801 23.32L66.6401 24.74L66.8801 35H65.5801V21H67.5401L68.6601 31.6L68.7601 32.9H68.8201L68.9001 31.6L69.9401 21H71.8801Z" fill="#1C1C1C"/>
<path d="M118.058 1V2.12H116.218V7.46H117.938V8.58H116.218V13.88H118.238V15H114.838V1H118.058Z" fill="#1C1C1C"/>
<path d="M113.716 3.74V12.22C113.716 14.1 112.796 15 111.156 15H109.076V1H111.156C112.776 1 113.716 1.88 113.716 3.74ZM112.356 3.58C112.356 2.56 111.976 2.12 111.156 2.12H110.456V13.88H111.156C111.976 13.88 112.356 13.42 112.356 12.4V3.58Z" fill="#1C1C1C"/>
<path d="M100.404 1H102.484C104.104 1 105.044 1.94 105.044 3.84V6.02C105.044 7.26 104.604 8.04 103.764 8.36V8.4C104.604 8.7 105.044 9.52 105.044 10.72V12.98C105.044 13.78 105.084 14.18 105.204 14.92V15H103.844C103.724 14.22 103.684 13.78 103.684 12.98V10.4C103.684 9.38 103.304 8.94 102.484 8.94H101.784V15H100.404V1ZM101.784 2.12V7.82H102.484C103.304 7.82 103.684 7.38 103.684 6.34V3.58C103.684 2.56 103.304 2.12 102.484 2.12H101.784Z" fill="#1C1C1C"/>
<path d="M99.347 1V2.12H97.507V7.46H99.227V8.58H97.507V13.88H99.527V15H96.127V1H99.347Z" fill="#1C1C1C"/>
<path d="M94.9913 1V15H93.3113L91.4113 4.82L91.1713 3.38H91.1113L91.1913 4.82L91.4913 15H90.1113V1H91.7913L93.9113 12.42H93.9713L93.8713 10.96L93.6113 1H94.9913Z" fill="#1C1C1C"/>
<path d="M87.6281 3.28C87.6281 2.24 87.3481 1.82 86.6881 1.82C86.0081 1.82 85.7281 2.24 85.7281 3.28V12.7C85.7281 13.72 86.0281 14.18 86.6281 14.18C87.2881 14.18 87.6681 13.58 87.6681 12.44V8.98H86.4481V7.86H89.0081V15H87.7681L87.6881 13.82H87.6481C87.4881 14.68 86.9081 15.3 86.0081 15.3C84.9281 15.3 84.3481 14.38 84.3481 12.52V3.44C84.3481 1.58 85.2281 0.699997 86.6881 0.699997C88.1481 0.699997 89.0081 1.58 89.0081 3.44V5.92H87.6281V3.28Z" fill="#1C1C1C"/>
<path d="M83.0209 1V15H81.6409V1H83.0209Z" fill="#1C1C1C"/>
<path d="M80.2191 5.32H78.8391V3.28C78.8391 2.18 78.5391 1.82 77.9391 1.82C77.3391 1.82 76.9991 2.18 76.9991 3.28V4.58C76.9991 5.66 77.6191 6.54 78.3191 7.36C79.2391 8.4 80.2791 9.6 80.2791 11.34V12.52C80.2791 14.44 79.3791 15.3 77.9191 15.3C76.4591 15.3 75.5791 14.46 75.5791 12.52V10.66H76.9391V12.7C76.9391 13.8 77.2991 14.18 77.9391 14.18C78.5591 14.18 78.8991 13.8 78.8991 12.7V11.4C78.8991 10.2 78.0991 9.26 77.2991 8.3C76.4591 7.3 75.6391 6.26 75.6391 4.66V3.44C75.6391 1.54 76.4991 0.699997 77.9391 0.699997C79.3591 0.699997 80.2191 1.54 80.2191 3.44V5.32Z" fill="#1C1C1C"/>
<path d="M74.5618 1V2.12H72.7218V7.46H74.4418V8.58H72.7218V13.88H74.7418V15H71.3418V1H74.5618Z" fill="#1C1C1C"/>
<path d="M70.2201 3.74V12.22C70.2201 14.1 69.3001 15 67.6601 15H65.5801V1H67.6601C69.2801 1 70.2201 1.88 70.2201 3.74ZM68.8601 3.58C68.8601 2.56 68.4801 2.12 67.6601 2.12H66.9601V13.88H67.6601C68.4801 13.88 68.8601 13.42 68.8601 12.4V3.58Z" fill="#1C1C1C"/>
</svg>
