<svg width="74" height="74" viewBox="0 0 74 74" fill="none" xmlns="http://www.w3.org/2000/svg">
<mask id="mask0_166_6788" style="mask-type:alpha" maskUnits="userSpaceOnUse" x="0" y="0" width="74" height="74">
<rect width="74" height="74" fill="#D9D9D9"/>
</mask>
<g mask="url(#mask0_166_6788)">
<path d="M33.916 55.4984C39.8771 55.4984 44.9646 53.4043 49.1785 49.2161C53.3924 45.0279 55.4994 39.9275 55.4994 33.915C55.4994 27.9539 53.3924 22.8664 49.1785 18.6525C44.9646 14.4387 39.8771 12.3317 33.916 12.3317C27.9035 12.3317 22.8032 14.4387 18.615 18.6525C14.4268 22.8664 12.3327 27.9539 12.3327 33.915C12.3327 39.9275 14.4268 45.0279 18.615 49.2161C22.8032 53.4043 27.9035 55.4984 33.916 55.4984ZM33.916 46.2484C29.6507 46.2484 25.8608 45.105 22.5462 42.8182C19.2316 40.5314 16.8549 37.5637 15.416 33.915C16.8549 30.3178 19.2316 27.363 22.5462 25.0505C25.8608 22.738 29.6507 21.5817 33.916 21.5817C38.1299 21.5817 41.8941 22.738 45.2087 25.0505C48.5233 27.363 50.9257 30.3178 52.416 33.915C50.9257 37.5637 48.5233 40.5314 45.2087 42.8182C41.8941 45.105 38.1299 46.2484 33.916 46.2484ZM33.916 41.6234C36.7424 41.6234 39.3375 40.9425 41.7014 39.5807C44.0653 38.2189 45.9153 36.3303 47.2514 33.915C45.9153 31.5512 44.0653 29.6755 41.7014 28.288C39.3375 26.9005 36.7424 26.2067 33.916 26.2067C31.0382 26.2067 28.4174 26.9005 26.0535 28.288C23.6896 29.6755 21.8396 31.5512 20.5035 33.915C21.8396 36.3303 23.6896 38.2189 26.0535 39.5807C28.4174 40.9425 31.0382 41.6234 33.916 41.6234ZM33.916 38.54C35.2007 38.54 36.2928 38.1032 37.1921 37.2296C38.0914 36.356 38.541 35.2512 38.541 33.915C38.541 32.6303 38.0914 31.5383 37.1921 30.639C36.2928 29.7397 35.2007 29.29 33.916 29.29C32.5799 29.29 31.475 29.7397 30.6014 30.639C29.7278 31.5383 29.291 32.6303 29.291 33.915C29.291 35.2512 29.7278 36.356 30.6014 37.2296C31.475 38.1032 32.5799 38.54 33.916 38.54ZM33.916 61.665C30.0619 61.665 26.4518 60.9328 23.0858 59.4682C19.7198 58.0036 16.7907 56.0251 14.2983 53.5328C11.8059 51.0404 9.82747 48.1112 8.36289 44.7452C6.89831 41.3793 6.16602 37.7692 6.16602 33.915C6.16602 30.1123 6.89831 26.5279 8.36289 23.1619C9.82747 19.7959 11.8059 16.8539 14.2983 14.3359C16.7907 11.8178 19.7198 9.8265 23.0858 8.36191C26.4518 6.89733 30.0619 6.16504 33.916 6.16504C37.7188 6.16504 41.3032 6.89733 44.6691 8.36191C48.0351 9.8265 50.9771 11.8178 53.4952 14.3359C56.0132 16.8539 58.0046 19.7959 59.4691 23.1619C60.9337 26.5279 61.666 30.1123 61.666 33.915C61.666 37.2039 61.1264 40.313 60.0473 43.2421C58.9681 46.1713 57.4778 48.8435 55.5764 51.2588L67.8327 63.515L63.4389 67.8317L51.1827 55.6525C48.7674 57.5539 46.0952 59.0314 43.166 60.0848C40.2369 61.1383 37.1535 61.665 33.916 61.665Z" fill="#420C9B"/>
</g>
</svg>
