<svg width="75" height="74" viewBox="0 0 75 74" fill="none" xmlns="http://www.w3.org/2000/svg">
<mask id="mask0_166_6796" style="mask-type:alpha" maskUnits="userSpaceOnUse" x="0" y="0" width="75" height="74">
<rect x="0.333984" width="74" height="74" fill="#D9D9D9"/>
</mask>
<g mask="url(#mask0_166_6796)">
<path d="M15.7507 64.7486C14.0548 64.7486 12.6031 64.1448 11.3954 62.9372C10.1878 61.7295 9.58398 60.2778 9.58398 58.582V15.4153C9.58398 13.7195 10.1878 12.2677 11.3954 11.0601C12.6031 9.85245 14.0548 9.24863 15.7507 9.24863H43.2694L37.1027 15.4153H15.7507V58.582H58.9173V37.1528L65.084 30.9861V58.582C65.084 60.2778 64.4802 61.7295 63.2725 62.9372C62.0649 64.1448 60.6132 64.7486 58.9173 64.7486H15.7507ZM28.084 46.2486V33.1445L56.3736 4.85488C56.9902 4.23822 57.684 3.77572 58.4548 3.46738C59.2257 3.15905 59.9965 3.00488 60.7673 3.00488C61.5895 3.00488 62.3732 3.15905 63.1184 3.46738C63.8635 3.77572 64.5444 4.23822 65.1611 4.85488L69.4777 9.24863C70.043 9.8653 70.4798 10.5462 70.7882 11.2913C71.0965 12.0365 71.2507 12.7945 71.2507 13.5653C71.2507 14.3361 71.1093 15.0941 70.8267 15.8393C70.5441 16.5844 70.0944 17.2653 69.4777 17.882L41.1882 46.2486H28.084ZM34.2507 40.082H38.5673L56.4507 22.1986L54.2923 20.0403L52.0569 17.882L34.2507 35.6882V40.082Z" fill="#420C9B"/>
</g>
</svg>
