<svg width="75" height="74" viewBox="0 0 75 74" fill="none" xmlns="http://www.w3.org/2000/svg">
<mask id="mask0_166_6812" style="mask-type:alpha" maskUnits="userSpaceOnUse" x="0" y="0" width="75" height="74">
<rect x="0.5" width="74" height="74" fill="#D9D9D9"/>
</mask>
<g mask="url(#mask0_166_6812)">
<path d="M27.6333 64.75H15.9167C14.2208 64.75 12.7691 64.1462 11.5615 62.9385C10.3538 61.7309 9.75 60.2792 9.75 58.5833V46.8667C12.2167 46.8667 14.375 46.083 16.225 44.5156C18.075 42.9483 19 40.9569 19 38.5417C19 36.1264 18.075 34.1351 16.225 32.5677C14.375 31.0003 12.2167 30.2167 9.75 30.2167V18.5C9.75 16.8042 10.3538 15.3524 11.5615 14.1448C12.7691 12.9372 14.2208 12.3333 15.9167 12.3333H28.25C28.25 10.175 28.9951 8.35069 30.4854 6.86042C31.9757 5.37014 33.8 4.625 35.9583 4.625C38.1167 4.625 39.941 5.37014 41.4313 6.86042C42.9215 8.35069 43.6667 10.175 43.6667 12.3333H56C57.6958 12.3333 59.1476 12.9372 60.3552 14.1448C61.5628 15.3524 62.1667 16.8042 62.1667 18.5V30.8333C64.325 30.8333 66.1493 31.5785 67.6396 33.0688C69.1299 34.559 69.875 36.3833 69.875 38.5417C69.875 40.7 69.1299 42.5243 67.6396 44.0146C66.1493 45.5049 64.325 46.25 62.1667 46.25V58.5833C62.1667 60.2792 61.5628 61.7309 60.3552 62.9385C59.1476 64.1462 57.6958 64.75 56 64.75H44.2833C44.2833 62.1806 43.474 59.9965 41.8552 58.1979C40.2365 56.3993 38.2708 55.5 35.9583 55.5C33.6458 55.5 31.6802 56.3993 30.0615 58.1979C28.4427 59.9965 27.6333 62.1806 27.6333 64.75ZM15.9167 58.5833H22.4687C23.7021 55.1917 25.6806 52.8021 28.4042 51.4146C31.1278 50.0271 33.6458 49.3333 35.9583 49.3333C38.2708 49.3333 40.7889 50.0271 43.5125 51.4146C46.2361 52.8021 48.2146 55.1917 49.4479 58.5833H56V40.0833H62.1667C62.5778 40.0833 62.9375 39.9292 63.2458 39.6208C63.5542 39.3125 63.7083 38.9528 63.7083 38.5417C63.7083 38.1306 63.5542 37.7708 63.2458 37.4625C62.9375 37.1542 62.5778 37 62.1667 37H56V18.5H37.5V12.3333C37.5 11.9222 37.3458 11.5625 37.0375 11.2542C36.7292 10.9458 36.3694 10.7917 35.9583 10.7917C35.5472 10.7917 35.1875 10.9458 34.8792 11.2542C34.5708 11.5625 34.4167 11.9222 34.4167 12.3333V18.5H15.9167V25.2833C18.6917 26.3111 20.9271 28.0326 22.6229 30.4479C24.3188 32.8632 25.1667 35.5611 25.1667 38.5417C25.1667 41.4708 24.3188 44.1431 22.6229 46.5583C20.9271 48.9736 18.6917 50.7208 15.9167 51.8V58.5833Z" fill="#420C9B"/>
</g>
</svg>
