<svg width="75" height="74" viewBox="0 0 75 74" fill="none" xmlns="http://www.w3.org/2000/svg">
<mask id="mask0_166_6804" style="mask-type:alpha" maskUnits="userSpaceOnUse" x="0" y="0" width="75" height="74">
<rect x="0.666016" width="74" height="74" fill="#D9D9D9"/>
</mask>
<g mask="url(#mask0_166_6804)">
<path d="M37.6667 67.8337C36.3306 67.8337 35.1229 67.5125 34.0438 66.8701C32.9646 66.2278 32.1167 65.367 31.5 64.2878C29.8042 64.2878 28.3524 63.684 27.1448 62.4764C25.9372 61.2687 25.3333 59.817 25.3333 58.1212V47.1753C22.3014 45.1712 19.8733 42.5246 18.049 39.2357C16.2247 35.9469 15.3125 32.3753 15.3125 28.5212C15.3125 22.3031 17.4837 17.0229 21.826 12.6805C26.1684 8.33817 31.4486 6.16699 37.6667 6.16699C43.8847 6.16699 49.1649 8.33817 53.5073 12.6805C57.8497 17.0229 60.0208 22.3031 60.0208 28.5212C60.0208 32.4781 59.1087 36.0753 57.2844 39.3128C55.4601 42.5503 53.0319 45.1712 50 47.1753V58.1212C50 59.817 49.3962 61.2687 48.1885 62.4764C46.9809 63.684 45.5292 64.2878 43.8333 64.2878C43.2167 65.367 42.3687 66.2278 41.2896 66.8701C40.2104 67.5125 39.0028 67.8337 37.6667 67.8337ZM31.5 58.1212H43.8333V55.3462H31.5V58.1212ZM31.5 52.2628H43.8333V49.3337H31.5V52.2628ZM30.8833 43.167H35.3542V34.842L28.5708 28.0587L31.8083 24.8212L37.6667 30.6795L43.525 24.8212L46.7625 28.0587L39.9792 34.842V43.167H44.45C47.225 41.8309 49.4861 39.8653 51.2333 37.2701C52.9806 34.675 53.8542 31.7587 53.8542 28.5212C53.8542 23.9989 52.2868 20.1705 49.1521 17.0357C46.0174 13.901 42.1889 12.3337 37.6667 12.3337C33.1444 12.3337 29.316 13.901 26.1813 17.0357C23.0465 20.1705 21.4792 23.9989 21.4792 28.5212C21.4792 31.7587 22.3528 34.675 24.1 37.2701C25.8472 39.8653 28.1083 41.8309 30.8833 43.167Z" fill="#420C9B"/>
</g>
</svg>
